# xmcd
#
# Track frame offsets: 
#        183
#        26975
#        42515
#        61988
#        71110
#        83053
#        101765
#        118250
#        130055
#        141515
#        154055
#        179305
#        202563
#        217528
#        231540
#        244873
#        256813
#        267243
#        278260
#        290723
#
# Disc length: 4108 seconds
#
# Revision: 0
# Processed by: cddbd v1.4PL0 Copyright (c) Steve Scherf et al.
# Submitted via: ExactAudioCopy v0.90a11
#
DISCID=2a100a14
DTITLE=The Yardbirds - Good Morning Little Schoolgirl
DYEAR=1900
DGENRE=
TTITLE0=I Wish You Would
TTITLE1=Train Kept A-Rollin'
TTITLE2=New York City Blues
TTITLE3=I Ain't Got You
TTITLE4=Baby What's Wrong?
TTITLE5=Who Do You Love
TTITLE6=I Ain't Done Wrong
TTITLE7=Got to Hurry
TTITLE8=I'm Not Talking
TTITLE9=Good Morning Little Schoolgirl
TTITLE10=Smokestack Lightning
TTITLE11=23 Hours Too Long
TTITLE12=Mr You're a Better Man than I
TTITLE13=Jeff's Blues
TTITLE14=You Can't Judge a Book (by Looking at its Cover)
TTITLE15=I'm a Man
TTITLE16=Let it Rock
TTITLE17=Boom Boom
TTITLE18=Stroll On
TTITLE19=Too Much Monkey Business
EXTD=
EXTT0=
EXTT1=
EXTT2=
EXTT3=
EXTT4=
EXTT5=
EXTT6=
EXTT7=
EXTT8=
EXTT9=
EXTT10=
EXTT11=
EXTT12=
EXTT13=
EXTT14=
EXTT15=
EXTT16=
EXTT17=
EXTT18=
EXTT19=
PLAYORDER=
